<svg width="18" height="25" viewBox="0 0 18 25" fill="none" xmlns="http://www.w3.org/2000/svg">
<path fill-rule="evenodd" clip-rule="evenodd" d="M18 9.97053C18 4.99704 13.9706 0.965332 9 0.965332C4.02939 0.965332 0 4.99704 0 9.97133C0 20.2916 9 24.9661 9 24.9661C7.42196 20.0646 11.5888 18.5984 11.5888 18.5984L11.588 18.5976C15.297 17.4847 18 14.0438 18 9.97053ZM15.8816 9.97064C15.8816 13.7727 12.8012 16.8548 9.00133 16.8548C5.20148 16.8548 2.12109 13.7727 2.12109 9.97064C2.12109 6.16859 5.20148 3.08643 9.00133 3.08643C12.8012 3.08643 15.8816 6.16859 15.8816 9.97064Z" fill="#16D761"/>
<path d="M9.00178 14.4477C11.4729 14.4477 13.4762 12.4433 13.4762 9.97067C13.4762 7.49808 11.4729 5.49365 9.00178 5.49365C6.53061 5.49365 4.52734 7.49808 4.52734 9.97067C4.52734 12.4433 6.53061 14.4477 9.00178 14.4477Z" fill="#16D761"/>
</svg>
