<svg width="26" height="30" viewBox="0 0 26 30" fill="none" xmlns="http://www.w3.org/2000/svg">
<path d="M25 28.9653C25 26.872 25 25.8253 24.7416 24.9736C24.1599 23.056 22.6593 21.5554 20.7417 20.9737C19.89 20.7153 18.8433 20.7153 16.75 20.7153H9.25001C7.15666 20.7153 6.10998 20.7153 5.25829 20.9737C3.34068 21.5554 1.84006 23.056 1.25836 24.9736C1 25.8253 1 26.872 1 28.9653M19.75 8.71533C19.75 12.4433 16.7279 15.4653 13 15.4653C9.27208 15.4653 6.25 12.4433 6.25 8.71533C6.25 4.98741 9.27208 1.96533 13 1.96533C16.7279 1.96533 19.75 4.98741 19.75 8.71533Z" stroke="#16D761" stroke-width="2" stroke-linecap="round" stroke-linejoin="round"/>
</svg>
