<svg width="29" height="28" viewBox="0 0 29 28" fill="none" xmlns="http://www.w3.org/2000/svg">
<path d="M13.5106 3.11106C13.8285 2.46155 13.9874 2.1368 14.2032 2.03304C14.3909 1.94276 14.6091 1.94276 14.7968 2.03304C15.0126 2.1368 15.1715 2.46155 15.4894 3.11106L18.5052 9.27312C18.5991 9.46487 18.646 9.56074 18.7146 9.63518C18.7753 9.70109 18.8481 9.75449 18.929 9.79243C19.0204 9.83527 19.1253 9.85074 19.335 9.88166L26.0811 10.8761C26.7914 10.9808 27.1466 11.0332 27.311 11.2082C27.454 11.3605 27.5213 11.5697 27.4941 11.7776C27.4628 12.0166 27.2056 12.2692 26.6913 12.7744L21.8117 17.5678C21.6596 17.7172 21.5835 17.7919 21.5345 17.8808C21.491 17.9595 21.4631 18.046 21.4524 18.1354C21.4402 18.2365 21.4582 18.342 21.4941 18.5531L22.6454 25.3236C22.7669 26.0377 22.8276 26.3947 22.7135 26.6066C22.6142 26.7909 22.4377 26.9202 22.2332 26.9585C21.9981 27.0024 21.6802 26.8338 21.0444 26.4966L15.0136 23.2979C14.8257 23.1982 14.7317 23.1484 14.6327 23.1288C14.5451 23.1115 14.4549 23.1115 14.3673 23.1288C14.2683 23.1484 14.1744 23.1982 13.9864 23.2979L7.9556 26.4966C7.31978 26.8338 7.00187 27.0024 6.7668 26.9585C6.56228 26.9202 6.3858 26.7909 6.28652 26.6066C6.17241 26.3947 6.23313 26.0377 6.35456 25.3236L7.50593 18.5531C7.54182 18.342 7.55977 18.2365 7.54763 18.1354C7.53688 18.046 7.509 17.9595 7.46555 17.8808C7.41647 17.7919 7.34041 17.7172 7.1883 17.5678L2.30868 12.7744C1.79438 12.2692 1.53723 12.0166 1.50594 11.7776C1.47872 11.5697 1.54598 11.3605 1.68899 11.2082C1.85337 11.0332 2.20856 10.9808 2.91895 10.8761L9.66495 9.88166C9.87475 9.85074 9.97964 9.83527 10.071 9.79243C10.1519 9.75449 10.2247 9.70109 10.2854 9.63518C10.354 9.56074 10.4009 9.46487 10.4948 9.27312L13.5106 3.11106Z" stroke="#16D761" stroke-width="2" stroke-linecap="round" stroke-linejoin="round"/>
</svg>
