<svg width="29" height="29" viewBox="0 0 29 29" fill="none" xmlns="http://www.w3.org/2000/svg">
<path d="M1.5 1.96533H3.20753C3.52914 1.96533 3.68995 1.96533 3.81936 2.02414C3.9334 2.07597 4.03005 2.15932 4.09777 2.26426C4.17462 2.38334 4.19736 2.54165 4.24284 2.85825L4.86159 7.16533M4.86159 7.16533L6.23671 17.2162C6.41122 18.4916 6.49847 19.1293 6.80509 19.6094C7.07528 20.0324 7.46263 20.3687 7.92054 20.5779C8.4402 20.8153 9.08741 20.8153 10.3818 20.8153H21.5694C22.8016 20.8153 23.4177 20.8153 23.9212 20.5949C24.3651 20.4005 24.7459 20.0871 25.021 19.6898C25.333 19.2392 25.4483 18.6374 25.6789 17.4337L27.4092 8.39993C27.4904 7.97628 27.5309 7.76446 27.4721 7.59888C27.4206 7.45363 27.3188 7.33132 27.1849 7.25375C27.0324 7.16533 26.8155 7.16533 26.3819 7.16533H4.86159ZM11.9583 26.6653C11.9583 27.3833 11.373 27.9653 10.651 27.9653C9.929 27.9653 9.34371 27.3833 9.34371 26.6653C9.34371 25.9474 9.929 25.3653 10.651 25.3653C11.373 25.3653 11.9583 25.9474 11.9583 26.6653ZM22.4166 26.6653C22.4166 27.3833 21.8313 27.9653 21.1093 27.9653C20.3873 27.9653 19.802 27.3833 19.802 26.6653C19.802 25.9474 20.3873 25.3653 21.1093 25.3653C21.8313 25.3653 22.4166 25.9474 22.4166 26.6653Z" stroke="#16D761" stroke-width="2" stroke-linecap="round" stroke-linejoin="round"/>
</svg>
