<svg width="24" height="25" viewBox="0 0 24 25" fill="none" xmlns="http://www.w3.org/2000/svg">
<path d="M14.0497 6.70801C15.0264 6.89857 15.924 7.37626 16.6277 8.07994C17.3314 8.78362 17.8091 9.68127 17.9997 10.658M14.0497 2.70801C16.0789 2.93344 17.9713 3.84218 19.4159 5.28502C20.8606 6.72785 21.7717 8.61902 21.9997 10.648M10.2266 14.5711C9.02506 13.3695 8.07627 12.0109 7.38028 10.5612C7.32041 10.4365 7.29048 10.3742 7.26748 10.2953C7.18576 10.015 7.24446 9.6707 7.41447 9.43327C7.46231 9.36646 7.51947 9.3093 7.63378 9.19499C7.98338 8.84538 8.15819 8.67058 8.27247 8.4948C8.70347 7.83191 8.70347 6.97733 8.27247 6.31444C8.15819 6.13866 7.98338 5.96386 7.63378 5.61425L7.43891 5.41938C6.90747 4.88794 6.64174 4.62222 6.35636 4.47787C5.7888 4.1908 5.11854 4.1908 4.55098 4.47787C4.2656 4.62222 3.99987 4.88794 3.46843 5.41938L3.3108 5.57702C2.78117 6.10664 2.51636 6.37145 2.31411 6.73148C2.08969 7.13099 1.92833 7.75148 1.9297 8.2097C1.93092 8.62265 2.01103 8.90487 2.17124 9.46932C3.03221 12.5027 4.65668 15.3651 7.04466 17.7531C9.43264 20.141 12.295 21.7655 15.3284 22.6265C15.8928 22.7867 16.1751 22.8668 16.588 22.868C17.0462 22.8694 17.6667 22.708 18.0662 22.4836C18.4263 22.2814 18.6911 22.0165 19.2207 21.4869L19.3783 21.3293C19.9098 20.7978 20.1755 20.5321 20.3198 20.2467C20.6069 19.6792 20.6069 19.0089 20.3198 18.4414C20.1755 18.156 19.9098 17.8903 19.3783 17.3588L19.1835 17.1639C18.8339 16.8143 18.6591 16.6395 18.4833 16.5252C17.8204 16.0942 16.9658 16.0943 16.3029 16.5252C16.1271 16.6395 15.9523 16.8143 15.6027 17.1639C15.4884 17.2783 15.4313 17.3354 15.3644 17.3832C15.127 17.5533 14.7828 17.612 14.5024 17.5302C14.4235 17.5072 14.3612 17.4773 14.2365 17.4174C12.7869 16.7214 11.4282 15.7727 10.2266 14.5711Z" stroke="#16D761" stroke-width="2" stroke-linecap="round" stroke-linejoin="round"/>
</svg>
